<?xml version="1.0" encoding="UTF-8"?>
<svg version="1.1" xmlns="http://www.w3.org/2000/svg" width="1000" height="1000">
<path d="M0 0 C2.9375 0.875 2.9375 0.875 4.3125 2.5 C5.52054299 7.09056338 5.42433033 10.77001454 3.50390625 15.12890625 C2.51197266 16.76666016 2.51197266 16.76666016 1.5 18.4375 C1.13874023 19.04190918 0.77748047 19.64631836 0.40527344 20.26904297 C-2.43377153 24.97678004 -5.41713566 29.59561078 -8.42138672 34.19921875 C-12.33203766 40.21509516 -15.99989456 46.37174738 -19.67285156 52.53466797 C-23.16100462 58.38601668 -26.71316602 64.18877674 -30.34375 69.953125 C-32.43530878 73.50877492 -34.26069472 77.16608913 -36.0625 80.875 C-35.36801758 80.78935791 -34.67353516 80.70371582 -33.95800781 80.61547852 C-30.74312817 80.2204207 -27.52782131 79.82894625 -24.3125 79.4375 C-23.22066406 79.30279297 -22.12882813 79.16808594 -21.00390625 79.02929688 C-19.91464844 78.89716797 -18.82539062 78.76503906 -17.703125 78.62890625 C-16.60548828 78.48984863 -15.50785156 78.35079102 -14.37695312 78.20751953 C-11.0625 77.875 -11.0625 77.875 -7.73242188 77.83544922 C-2.15829677 77.91760025 -2.15829677 77.91760025 2.56738281 75.43334961 C3.91402931 73.31452106 4.91319077 71.16693747 5.9375 68.875 C6.97481316 67.04623037 8.02791613 65.22635803 9.09375 63.4140625 C10.21023934 61.44378719 11.3247908 59.4724126 12.4375 57.5 C13.27087891 56.03433594 13.27087891 56.03433594 14.12109375 54.5390625 C17.23364428 49.03167898 20.15088093 43.50769577 22.77929688 37.75146484 C23.9375 35.875 23.9375 35.875 26.9375 34.875 C27.44915857 33.27180315 27.94343294 31.66094044 28.34765625 30.02734375 C29.49520753 25.83992152 31.26349158 21.87435829 32.9375 17.875 C33.45376953 16.62009766 33.45376953 16.62009766 33.98046875 15.33984375 C34.31691406 14.54707031 34.65335938 13.75429688 35 12.9375 C35.30035156 12.22722656 35.60070312 11.51695312 35.91015625 10.78515625 C37.04744993 8.67056838 38.01801834 7.3260914 39.9375 5.875 C41.91015625 5.73046875 41.91015625 5.73046875 44 6.0625 C44.69222656 6.15917969 45.38445312 6.25585938 46.09765625 6.35546875 C47.9375 6.875 47.9375 6.875 49.9375 8.875 C51.37472493 13.32674332 51.51112369 17.33081136 49.87695312 21.72998047 C48.26184381 24.84015719 46.5171582 27.8235305 44.6875 30.8125 C44.04796387 31.90280518 43.40842773 32.99311035 42.74951172 34.11645508 C41.44788323 36.33181705 40.13592752 38.5411452 38.81347656 40.74414062 C36.63960179 44.37216901 34.52616408 48.03213316 32.42041016 51.69995117 C31.09600803 54.00420133 29.76070543 56.30176537 28.421875 58.59765625 C25.37191698 63.83547297 22.38322422 69.10765883 19.3984375 74.3828125 C17.9375 76.875 17.9375 76.875 16.9375 77.875 C17.97390625 78.0709375 19.0103125 78.266875 20.078125 78.46875 C30.91901995 80.77006512 30.91901995 80.77006512 33.82421875 83.921875 C34.875 86.125 34.875 86.125 35.9375 89.875 C36.56657444 87.9686436 36.56657444 87.9686436 36.9375 85.875 C36.48375 85.276875 36.03 84.67875 35.5625 84.0625 C33.33558946 81.06473582 33.2005918 78.55828514 32.9375 74.875 C33.23063423 73.53225609 33.55534573 72.19516931 33.9375 70.875 C35.04158203 70.71064453 35.04158203 70.71064453 36.16796875 70.54296875 C37.63169922 70.30513672 37.63169922 70.30513672 39.125 70.0625 C40.08792969 69.91167969 41.05085937 69.76085937 42.04296875 69.60546875 C46.57082379 68.46281168 49.12082485 66.99324182 51.89453125 63.1953125 C52.50683594 62.14085937 53.11914062 61.08640625 53.75 60 C54.43587318 58.83834987 55.12208146 57.67689754 55.80859375 56.515625 C56.15647949 55.91814453 56.50436523 55.32066406 56.86279297 54.70507812 C58.63261995 51.69130641 60.47479103 48.72267736 62.3125 45.75 C62.95960938 44.69554687 63.60671875 43.64109375 64.2734375 42.5546875 C65.46200431 40.64070432 66.68775877 38.74961184 67.9375 36.875 C67.133125 36.441875 66.32875 36.00875 65.5 35.5625 C62.9375 33.875 62.9375 33.875 61.9375 30.875 C61.9375 25.62231183 61.9375 25.62231183 63.9375 22.875 C67.61215653 21.15635083 71.23558137 20.03339428 75.140625 18.98046875 C79.81848445 17.61849938 83.67412652 16.25322561 87 12.625 C87.639375 12.0475 88.27875 11.47 88.9375 10.875 C91.68176716 11.07101908 93.48960492 11.65105246 95.9375 12.875 C97.71665934 12.63938976 99.48664531 12.33391671 101.25 12 C107.36785159 11.00533816 113.43688408 10.46607294 119.625 10.125 C120.4910083 10.06844238 121.3570166 10.01188477 122.24926758 9.95361328 C128.84796161 9.63203096 135.91695614 9.86472807 141.9375 12.875 C141.9375 15.185 141.9375 17.495 141.9375 19.875 C137.05493708 22.285509 132.02076105 22.59062388 126.6875 23.1875 C117.77644967 24.27945911 108.94585064 25.63889539 100.125 27.3125 C99.03993164 27.50561768 97.95486328 27.69873535 96.83691406 27.89770508 C95.83241211 28.09517334 94.82791016 28.2926416 93.79296875 28.49609375 C92.90246826 28.6655249 92.01196777 28.83495605 91.09448242 29.00952148 C88.79143383 29.68749792 88.79143383 29.68749792 87.73364258 31.80126953 C87.47091553 32.48560059 87.20818848 33.16993164 86.9375 33.875 C82.1321021 41.58954809 76.79941517 48.77326011 71.13671875 55.8671875 C69.01633204 58.76718354 67.43915398 61.61898653 65.9375 64.875 C66.9275 64.545 67.9175 64.215 68.9375 63.875 C71.88200186 63.40925283 74.84798787 63.12297742 77.8125 62.8125 C78.6578833 62.72307129 79.5032666 62.63364258 80.37426758 62.54150391 C87.25704082 61.85629371 94.01935833 61.65143348 100.9375 61.875 C101.2675 62.535 101.5975 63.195 101.9375 63.875 C101.4425 64.49375 100.9475 65.1125 100.4375 65.75 C98.74527227 67.71380904 98.74527227 67.71380904 98.9375 69.875 C92.44466943 72.29751443 86.08473372 74.12917297 79.25 75.3125 C64.62175395 77.27830223 64.62175395 77.27830223 51.8984375 83.6953125 C50.60684718 85.71589858 49.76100219 87.62717515 48.9375 89.875 C48.25694375 91.12879402 47.5693522 92.37879325 46.875 93.625 C44.03204061 99.50899382 41.19185628 105.91768954 40.76953125 112.48828125 C42.47223731 115.96772406 44.83088307 116.76138618 48.36035156 118.13867188 C52.58005142 119.34430041 56.4547779 119.37910283 60.8125 119.125 C61.74795654 119.07625732 62.68341309 119.02751465 63.6472168 118.97729492 C75.16774703 118.08398925 85.95297241 114.53391357 96.85009766 110.87548828 C99.65920071 109.96518429 102.46702001 109.17582845 105.32421875 108.43359375 C113.14547012 106.54054369 113.14547012 106.54054369 118.55859375 101.046875 C119.35605949 97.94858704 119.69697973 95.05861375 119.9375 91.875 C120.39125 90.72 120.845 89.565 121.3125 88.375 C121.51875 87.55 121.725 86.725 121.9375 85.875 C120.62288601 83.87165314 120.62288601 83.87165314 118.9375 81.875 C118.06678629 77.81166935 117.78900441 74.84253021 118.9375 70.875 C120.04158203 70.71064453 120.04158203 70.71064453 121.16796875 70.54296875 C122.14378906 70.38441406 123.11960937 70.22585938 124.125 70.0625 C125.56939453 69.83626953 125.56939453 69.83626953 127.04296875 69.60546875 C131.57082379 68.46281168 134.12082485 66.99324182 136.89453125 63.1953125 C137.50683594 62.14085937 138.11914062 61.08640625 138.75 60 C139.43587318 58.83834987 140.12208146 57.67689754 140.80859375 56.515625 C141.15647949 55.91814453 141.50436523 55.32066406 141.86279297 54.70507812 C143.63261995 51.69130641 145.47479103 48.72267736 147.3125 45.75 C147.95960938 44.69554687 148.60671875 43.64109375 149.2734375 42.5546875 C150.46200431 40.64070432 151.68775877 38.74961184 152.9375 36.875 C152.133125 36.441875 151.32875 36.00875 150.5 35.5625 C147.9375 33.875 147.9375 33.875 146.9375 30.875 C146.9375 25.62231183 146.9375 25.62231183 148.9375 22.875 C152.61215653 21.15635083 156.23558137 20.03339428 160.140625 18.98046875 C164.81848445 17.61849938 168.67412652 16.25322561 172 12.625 C172.639375 12.0475 173.27875 11.47 173.9375 10.875 C176.68176716 11.07101908 178.48960492 11.65105246 180.9375 12.875 C182.71665934 12.63938976 184.48664531 12.33391671 186.25 12 C192.36785159 11.00533816 198.43688408 10.46607294 204.625 10.125 C205.4910083 10.06844238 206.3570166 10.01188477 207.24926758 9.95361328 C213.84796161 9.63203096 220.91695614 9.86472807 226.9375 12.875 C226.9375 15.185 226.9375 17.495 226.9375 19.875 C222.05493708 22.285509 217.02076105 22.59062388 211.6875 23.1875 C202.77644967 24.27945911 193.94585064 25.63889539 185.125 27.3125 C183.49739746 27.60217651 183.49739746 27.60217651 181.83691406 27.89770508 C180.83241211 28.09517334 179.82791016 28.2926416 178.79296875 28.49609375 C177.90246826 28.6655249 177.01196777 28.83495605 176.09448242 29.00952148 C173.79143383 29.68749792 173.79143383 29.68749792 172.73364258 31.80126953 C172.47091553 32.48560059 172.20818848 33.16993164 171.9375 33.875 C167.1321021 41.58954809 161.79941517 48.77326011 156.13671875 55.8671875 C154.01633204 58.76718354 152.43915398 61.61898653 150.9375 64.875 C151.9275 64.545 152.9175 64.215 153.9375 63.875 C156.88200186 63.40925283 159.84798787 63.12297742 162.8125 62.8125 C163.6578833 62.72307129 164.5032666 62.63364258 165.37426758 62.54150391 C172.25704082 61.85629371 179.01935833 61.65143348 185.9375 61.875 C186.2675 62.535 186.5975 63.195 186.9375 63.875 C186.4425 64.49375 185.9475 65.1125 185.4375 65.75 C183.74527227 67.71380904 183.74527227 67.71380904 183.9375 69.875 C177.44466943 72.29751443 171.08473372 74.12917297 164.25 75.3125 C149.62175395 77.27830223 149.62175395 77.27830223 136.8984375 83.6953125 C135.60684718 85.71589858 134.76100219 87.62717515 133.9375 89.875 C133.25694375 91.12879402 132.5693522 92.37879325 131.875 93.625 C129.03204061 99.50899382 126.19185628 105.91768954 125.76953125 112.48828125 C127.47223731 115.96772406 129.83088307 116.76138618 133.36035156 118.13867188 C137.57994859 119.34427103 141.45486515 119.37945453 145.8125 119.125 C147.21786011 119.05079834 147.21786011 119.05079834 148.65161133 118.97509766 C166.43714627 117.58739827 183.72604377 110.62126332 200.2421875 104.22265625 C203.18630157 103.14895714 205.85409004 102.35262625 208.9375 101.875 C208.60310897 104.77305561 208.39452998 106.41622015 206.9375 108.875 C204.97802734 109.98657227 204.97802734 109.98657227 202.5234375 110.87890625 C201.62415527 111.21067871 200.72487305 111.54245117 199.79833984 111.88427734 C198.8542627 112.21121582 197.91018555 112.5381543 196.9375 112.875 C196.02822754 113.19033691 195.11895508 113.50567383 194.18212891 113.83056641 C191.43999105 114.76087363 188.6909191 115.66617421 185.9375 116.5625 C184.08290055 117.16925167 182.22871192 117.77726095 180.375 118.38671875 C179.56933594 118.64928467 178.76367188 118.91185059 177.93359375 119.18237305 C175.90038035 119.83968783 175.90038035 119.83968783 173.9375 120.875 C175.93782373 121.87516187 177.76875748 122.36896008 179.9375 122.875 C173.52073969 126.72505619 165.40681377 128.875 157.9375 128.875 C157.6075 130.195 157.2775 131.515 156.9375 132.875 C138.39703003 136.82278068 138.39703003 136.82278068 129.9375 132.875 C128.09196063 131.65410472 126.31331347 130.3756137 124.546875 129.04296875 C122.87575881 127.76327961 122.87575881 127.76327961 120.5625 126.6875 C118.9375 125.875 118.9375 125.875 117.9375 123.875 C117.70799681 121.670636 117.52674067 119.46107827 117.375 117.25 C117.29121094 116.06148437 117.20742188 114.87296875 117.12109375 113.6484375 C117.06050781 112.73320313 116.99992188 111.81796875 116.9375 110.875 C112.6450648 112.35194303 108.35368498 113.83192885 104.0625 115.3125 C102.83917969 115.73337891 101.61585938 116.15425781 100.35546875 116.58789062 C98.60556641 117.19213867 98.60556641 117.19213867 96.8203125 117.80859375 C95.74152832 118.18040771 94.66274414 118.55222168 93.55126953 118.93530273 C91.00085186 119.79405678 91.00085186 119.79405678 88.9375 120.875 C90.93782373 121.87516187 92.76875748 122.36896008 94.9375 122.875 C88.52073969 126.72505619 80.40681377 128.875 72.9375 128.875 C72.6075 130.195 72.2775 131.515 71.9375 132.875 C53.39703003 136.82278068 53.39703003 136.82278068 44.9375 132.875 C43.09196063 131.65410472 41.31331347 130.3756137 39.546875 129.04296875 C37.87575881 127.76327961 37.87575881 127.76327961 35.5625 126.6875 C33.9375 125.875 33.9375 125.875 32.9375 123.875 C31.51090668 114.55811274 31.29926155 105.94394468 33.9375 96.875 C32.4525 96.38 32.4525 96.38 30.9375 95.875 C30.6075 94.225 30.2775 92.575 29.9375 90.875 C27.68863762 90.36990792 25.43836131 89.87110821 23.1875 89.375 C21.93453125 89.0965625 20.6815625 88.818125 19.390625 88.53125 C15.86837755 87.75053097 15.86837755 87.75053097 11.9375 87.875 C5.77578004 95.58792218 1.93135423 105.88157523 -2.0625 114.875 C-2.56265625 115.98875 -3.0628125 117.1025 -3.578125 118.25 C-5.85921968 123.49389581 -7.67210214 128.14916474 -8.0625 133.875 C-11.0625 134.875 -11.0625 134.875 -13.5625 134.4375 C-16.87556237 132.36683602 -17.35459804 130.28470805 -18.484375 126.65234375 C-18.91514364 124.87112157 -18.91514364 124.87112157 -20.0625 123.875 C-20.6600999 118.52890359 -18.9060139 114.84073548 -16.4375 110.25 C-15.70438194 108.83726301 -14.97130949 107.42450235 -14.23828125 106.01171875 C-13.8717041 105.3161084 -13.50512695 104.62049805 -13.12744141 103.90380859 C-11.58985782 100.97457439 -10.10594626 98.02078925 -8.625 95.0625 C-7.91537109 93.66064453 -7.91537109 93.66064453 -7.19140625 92.23046875 C-5.97237829 89.81271746 -5.97237829 89.81271746 -5.0625 86.875 C-10.82646844 86.47286267 -15.7329067 87.68799476 -21.30859375 89.109375 C-24.13668703 89.68617654 -26.62071998 90.032565 -29.47265625 90.203125 C-37.38625377 90.40989191 -37.38625377 90.40989191 -44.30078125 93.68359375 C-45.86384855 96.01405843 -46.97505484 98.29129571 -48.0625 100.875 C-48.84243368 102.23595809 -49.63427596 103.59015646 -50.4375 104.9375 C-52.81074732 109.31172055 -55.06571693 113.74733363 -57.3125 118.1875 C-57.84302979 119.22886108 -57.84302979 119.22886108 -58.38427734 120.29125977 C-61.16241854 125.83878043 -62.36790637 128.83749554 -61.0625 134.875 C-62.0625 135.875 -62.0625 135.875 -65.375 136.3125 C-69.0625 135.875 -69.0625 135.875 -71.4375 133.375 C-73.61413847 128.6868556 -74.97646195 124.56601493 -73.28173828 119.57617188 C-72.09604882 117.10977432 -70.80376307 114.74598021 -69.4375 112.375 C-68.99792969 111.57191406 -68.55835938 110.76882813 -68.10546875 109.94140625 C-65.26826958 104.80782301 -62.22015521 99.81682414 -59.0625 94.875 C-59.85914063 95.16375 -60.65578125 95.4525 -61.4765625 95.75 C-62.53617188 96.12125 -63.59578125 96.4925 -64.6875 96.875 C-65.73164062 97.24625 -66.77578125 97.6175 -67.8515625 98 C-71.08024506 98.87983564 -73.73494294 99.03488262 -77.0625 98.875 C-77.56865298 97.60660474 -78.06719099 96.33516898 -78.5625 95.0625 C-78.8409375 94.35480469 -79.119375 93.64710938 -79.40625 92.91796875 C-80.0625 90.875 -80.0625 90.875 -80.0625 87.875 C-79.26666504 87.80732422 -78.47083008 87.73964844 -77.65087891 87.66992188 C-61.3680311 86.85120336 -61.3680311 86.85120336 -48.046875 79.015625 C-45.5174075 75.18994555 -43.79294411 71.10927107 -42.0625 66.875 C-41.4025 66.545 -40.7425 66.215 -40.0625 65.875 C-40.39419195 72.17714697 -43.73573988 76.72716936 -47.0625 81.875 C-42.63776111 78.12067609 -40.10984486 73.80021202 -37.28125 68.76953125 C-35.5702682 65.72896045 -33.78164331 62.74261773 -31.96875 59.76171875 C-25.49536781 49.07655768 -19.64551864 38.50753458 -15.0625 26.875 C-15.7225 26.875 -16.3825 26.875 -17.0625 26.875 C-16.57385496 20.89398472 -13.9748224 16.31273602 -11.1875 11.125 C-10.74019531 10.26261719 -10.29289063 9.40023438 -9.83203125 8.51171875 C-5.20374411 -0.21239772 -5.20374411 -0.21239772 0 0 Z M128.9375 17.875 C128.9375 18.205 128.9375 18.535 128.9375 18.875 C131.2475 18.875 133.5575 18.875 135.9375 18.875 C135.9375 18.545 135.9375 18.215 135.9375 17.875 C133.6275 17.875 131.3175 17.875 128.9375 17.875 Z M213.9375 17.875 C213.9375 18.205 213.9375 18.535 213.9375 18.875 C216.2475 18.875 218.5575 18.875 220.9375 18.875 C220.9375 18.545 220.9375 18.215 220.9375 17.875 C218.6275 17.875 216.3175 17.875 213.9375 17.875 Z M-20.0625 82.875 C-17.29716017 84.25766991 -15.31544564 83.77970774 -12.25 83.5 C-11.21230469 83.40976562 -10.17460938 83.31953125 -9.10546875 83.2265625 C-6.37745626 82.91138776 -3.74392097 82.45985707 -1.0625 81.875 C-1.0625 81.545 -1.0625 81.215 -1.0625 80.875 C-7.76768586 80.67681717 -13.71426798 80.56655199 -20.0625 82.875 Z M0.9375 86.875 C0.9375 89.875 0.9375 89.875 0.9375 89.875 Z M-1.0625 89.875 C-1.743125 90.98875 -2.42375 92.1025 -3.125 93.25 C-3.50785156 93.87648438 -3.89070312 94.50296875 -4.28515625 95.1484375 C-4.54167969 95.71820312 -4.79820312 96.28796875 -5.0625 96.875 C-4.7325 97.535 -4.4025 98.195 -4.0625 98.875 C-3.381875 97.76125 -2.70125 96.6475 -2 95.5 C-1.61714844 94.87351562 -1.23429688 94.24703125 -0.83984375 93.6015625 C-0.58332031 93.03179688 -0.32679688 92.46203125 -0.0625 91.875 C-0.3925 91.215 -0.7225 90.555 -1.0625 89.875 Z M-6.0625 98.875 C-5.0625 100.875 -5.0625 100.875 -5.0625 100.875 Z M-7.0625 100.875 C-6.0625 102.875 -6.0625 102.875 -6.0625 102.875 Z M-8.0625 102.875 C-8.743125 103.968125 -9.42375 105.06125 -10.125 106.1875 C-10.69927734 107.10982422 -10.69927734 107.10982422 -11.28515625 108.05078125 C-12.37362074 110.04633075 -12.37362074 110.04633075 -11.0625 112.875 C-10.36539269 111.58849294 -9.68007124 110.29559335 -9 109 C-8.61714844 108.28070312 -8.23429688 107.56140625 -7.83984375 106.8203125 C-7.45505859 105.85738281 -7.45505859 105.85738281 -7.0625 104.875 C-7.3925 104.215 -7.7225 103.555 -8.0625 102.875 Z M84.9375 120.875 C84.2775 121.535 83.6175 122.195 82.9375 122.875 C83.9275 122.875 84.9175 122.875 85.9375 122.875 C85.6075 122.215 85.2775 121.555 84.9375 120.875 Z M169.9375 120.875 C169.2775 121.535 168.6175 122.195 167.9375 122.875 C168.9275 122.875 169.9175 122.875 170.9375 122.875 C170.6075 122.215 170.2775 121.555 169.9375 120.875 Z " fill="#FFFFFF" transform="translate(606.0625,432.125)"/>
<path d="M0 0 C0.99 0.495 0.99 0.495 2 1 C0.99582031 1.75023437 -0.00835937 2.50046875 -1.04296875 3.2734375 C-5.36787137 6.50780502 -9.68468757 9.75285385 -14 13 C-14.5966748 13.44762695 -15.19334961 13.89525391 -15.80810547 14.35644531 C-27.25424279 22.95875895 -38.05972417 32.24300539 -48.65234375 41.87109375 C-50.21801848 43.29088198 -51.79362323 44.69979585 -53.37890625 46.09765625 C-62.53602667 54.19648988 -71.42892276 62.73544571 -79.34375 72.06640625 C-81.25985577 74.30336935 -83.25512856 76.45803578 -85.25 78.625 C-116.47627413 113.33258171 -141.94013297 155.78283432 -154 201 C-154.34160156 202.22589844 -154.68320313 203.45179688 -155.03515625 204.71484375 C-159.46673838 223.03892057 -159.49100746 245.01801482 -150 261.6875 C-147.99004248 264.849906 -145.81351081 267.51178355 -143 270 C-141.66400079 269.67751743 -140.33106622 269.34227417 -139 269 C-137.88625 269.53625 -136.7725 270.0725 -135.625 270.625 C-132.10412363 272.39087945 -132.10412363 272.39087945 -128.875 271 C-119.24005167 264.29742725 -112.47990879 253.61262167 -106.1875 243.875 C-105.55859863 242.905625 -104.92969727 241.93625 -104.28173828 240.9375 C-92.80036904 223.06211416 -82.14345774 204.64179972 -71.625 186.1875 C-71.1201709 185.30642578 -70.6153418 184.42535156 -70.09521484 183.51757812 C-65.29015628 174.9992962 -61.29955228 166.20401425 -58 157 C-55.03 157 -52.06 157 -49 157 C-48.67 157.99 -48.34 158.98 -48 160 C-47.195625 160.309375 -46.39125 160.61875 -45.5625 160.9375 C-43 162 -43 162 -41.86328125 163.6640625 C-34.07698618 184.73286094 -46.22226045 219.09144255 -50 241 C-49.59652344 240.18144531 -49.19304687 239.36289062 -48.77734375 238.51953125 C-46.54019079 234.00193382 -44.27334635 229.49947646 -42 225 C-41.1953833 223.40744385 -41.1953833 223.40744385 -40.37451172 221.78271484 C-29.06597637 199.47740828 -17.06833716 177.70972308 -3.21044922 156.86328125 C-1.44447678 154.14486623 0.22181397 151.36654348 1.88452148 148.58398438 C3 147 3 147 5 146 C11.47058824 145.64705882 11.47058824 145.64705882 15 148 C15 148.66 15 149.32 15 150 C16.65 150.33 18.3 150.66 20 151 C20 153.31 20 155.62 20 158 C17.98177083 158.390625 15.96354167 158.78125 13.9453125 159.171875 C11.3332712 160.28382833 11.11066603 161.42486707 10 164 C8.81387327 165.74447419 7.60135921 167.4710706 6.375 169.1875 C0.20837428 177.94583896 -5.46895585 187.02461087 -11.20703125 196.06640625 C-13.28505016 199.33650638 -15.37220498 202.58938082 -17.57421875 205.77734375 C-25.49460718 217.38708131 -31.07554354 230.29778698 -37 243 C-37.70140199 244.49368731 -38.40315365 245.98721055 -39.10546875 247.48046875 C-39.67472562 248.69519704 -40.24375546 249.91003175 -40.8125 251.125 C-41.33457031 252.24003906 -41.85664063 253.35507812 -42.39453125 254.50390625 C-43.60858555 257.14764979 -44.78762533 259.79821453 -45.94921875 262.46484375 C-46.29041748 263.22974121 -46.63161621 263.99463867 -46.9831543 264.78271484 C-47.63608763 266.24660236 -48.27551451 267.71663153 -48.89770508 269.19384766 C-51.26534517 274.44473882 -54.39725408 277.57945514 -59 281 C-60.32 280.34 -61.64 279.68 -63 279 C-63 278.01 -63 277.02 -63 276 C-63.928125 275.690625 -63.928125 275.690625 -64.875 275.375 C-67 274 -67 274 -68.3125 271.5625 C-69.99117492 262.86391177 -67.493104 253.57530556 -65.78515625 245.0078125 C-65.5693541 243.90001434 -65.35355194 242.79221619 -65.13121033 241.65084839 C-64.4468105 238.14119677 -63.7551606 234.63302977 -63.0625 231.125 C-62.37443424 227.62392393 -61.68802258 224.12254118 -61.00450134 220.62057495 C-60.58107128 218.4527964 -60.15497345 216.28553641 -59.7256012 214.118927 C-58.46141756 207.66667135 -57.44541808 201.2336576 -56.64793396 194.70578003 C-55.96058502 191.83540258 -55.28374389 190.79827134 -53 189 C-53.99 188.67 -54.98 188.34 -56 188 C-56.3403125 188.59425781 -56.680625 189.18851563 -57.03125 189.80078125 C-60.39621665 195.5552322 -64.05144701 200.94358148 -68.0703125 206.26171875 C-70.27563248 209.3911303 -72.15739614 212.65049112 -74 216 C-74.51771973 216.93839722 -74.51771973 216.93839722 -75.04589844 217.89575195 C-75.57425293 218.85421021 -75.57425293 218.85421021 -76.11328125 219.83203125 C-76.47486328 220.48623047 -76.83644531 221.14042969 -77.20898438 221.81445312 C-77.93696632 223.1325514 -78.66101753 224.45282929 -79.38085938 225.77539062 C-81.52446019 229.63538433 -83.84734422 233.24599424 -86.42578125 236.83203125 C-90.06646013 241.95034268 -92.97624637 247.31290963 -95.875 252.875 C-106.65843074 273.10562049 -106.65843074 273.10562049 -114 278 C-113.01 278.66 -112.02 279.32 -111 280 C-123.76332949 282.98432756 -133.38164005 282.49581851 -145 276 C-157.97878802 266.77697848 -163.72273568 254.77449164 -166.6875 239.4453125 C-174.17874416 191.89672109 -148.64036834 141.87823622 -121.65844727 104.43017578 C-115.45595945 95.97849013 -108.95145943 87.84507006 -102 80 C-101.18917969 79.07832031 -100.37835938 78.15664063 -99.54296875 77.20703125 C-87.62804565 63.93772365 -75.13664048 50.90734401 -61 40 C-59.29006757 38.56440252 -57.58180189 37.12681801 -55.875 35.6875 C-39.0043906 21.96828252 -19.90149843 8.83488485 0 0 Z M-2 168 C-3.7536564 170.33942344 -3.7536564 170.33942344 -5 173 C-4.67 173.66 -4.34 174.32 -4 175 C-1.02324541 171.90672105 -1.02324541 171.90672105 0 168 C-0.66 168 -1.32 168 -2 168 Z M-59 175 C-59.556875 176.00417969 -60.11375 177.00835937 -60.6875 178.04296875 C-61.45769331 179.42483608 -62.22857722 180.80631864 -63 182.1875 C-63.40138184 182.90695801 -63.80276367 183.62641602 -64.21630859 184.36767578 C-67.50463609 190.21803481 -71.01647558 195.89133969 -74.6640625 201.5234375 C-75.10492188 202.34070313 -75.54578125 203.15796875 -76 204 C-75.67 204.66 -75.34 205.32 -75 206 C-65.51781373 192.56022745 -65.51781373 192.56022745 -58 178 C-58.33 177.01 -58.66 176.02 -59 175 Z M-6 175 C-6.66 176.32 -7.32 177.64 -8 179 C-7.01 178.34 -6.02 177.68 -5 177 C-5.33 176.34 -5.66 175.68 -6 175 Z M-10 179 C-9.67 179.99 -9.34 180.98 -9 182 C-8.67 181.01 -8.34 180.02 -8 179 C-8.66 179 -9.32 179 -10 179 Z M-12 184 C-15.77125318 188.75618528 -19.00776638 193.54061205 -21.82421875 198.921875 C-23 201 -23 201 -24.64453125 203.140625 C-26.19635993 204.88585938 -26.19635993 204.88585938 -26 207 C-26.99 207 -27.98 207 -29 207 C-29.81381795 208.93694678 -30.62600916 210.87457711 -31.4375 212.8125 C-31.88996094 213.89144531 -32.34242188 214.97039062 -32.80859375 216.08203125 C-33.60375013 218.0295126 -34.33479648 220.00438943 -35 222 C-31.07310098 220.51048658 -30.04104979 218.58164987 -28 215 C-27.34644531 213.91847656 -26.69289062 212.83695313 -26.01953125 211.72265625 C-23.66530872 207.82364171 -21.33027294 203.91336418 -19 200 C-18.5992627 199.33000977 -18.19852539 198.66001953 -17.78564453 197.96972656 C-16.63987664 196.04739836 -15.50580088 194.1186614 -14.375 192.1875 C-14.02026611 191.59525635 -13.66553223 191.0030127 -13.30004883 190.39282227 C-12.47082044 188.9630385 -11.726404 187.48466783 -11 186 C-11.33 185.34 -11.66 184.68 -12 184 Z M-77 206 C-77.37286133 206.60473145 -77.74572266 207.20946289 -78.12988281 207.83251953 C-79.83547985 210.59736538 -81.5427256 213.36118962 -83.25 216.125 C-84.12978516 217.55199219 -84.12978516 217.55199219 -85.02734375 219.0078125 C-87.9434637 223.72602906 -90.88049406 228.41339969 -94 233 C-93.67 233.66 -93.34 234.32 -93 235 C-87.41207157 228.89467079 -83.06542446 222.81834893 -79.375 215.4375 C-79.02050781 214.73496094 -78.66601562 214.03242188 -78.30078125 213.30859375 C-77.46280762 211.57157959 -76.72207695 209.78830167 -76 208 C-76.33 207.34 -76.66 206.68 -77 206 Z M-39 229 C-38 231 -38 231 -38 231 Z M-95 235 C-95 238 -95 238 -95 238 Z M-97 238 C-97 241 -97 241 -97 241 Z M-99 241 C-98 243 -98 243 -98 243 Z " fill="#FFFFFF" transform="translate(276,287)"/>
<path d="M0 0 C1.52270508 0.7425 1.52270508 0.7425 3.07617188 1.5 C7.08960267 3.46084013 11.0854179 5.43788475 15.03125 7.53125 C15.8253125 7.8921875 16.619375 8.253125 17.4375 8.625 C19.42080173 7.75850534 19.42080173 7.75850534 21.4375 6.625 C26.67391494 6.81541509 29.76087733 7.83696452 33.4375 11.625 C33.4375 12.615 33.4375 13.605 33.4375 14.625 C32.7775 15.285 32.1175 15.945 31.4375 16.625 C33.84662355 17.99436501 36.26324185 19.34541993 38.6875 20.6875 C39.36941406 21.07744141 40.05132812 21.46738281 40.75390625 21.86914062 C41.74970703 22.41538086 41.74970703 22.41538086 42.765625 22.97265625 C43.3730957 23.31304932 43.98056641 23.65344238 44.60644531 24.00415039 C46.96949983 24.80538341 48.1210797 24.49739934 50.4375 23.625 C52.74190208 22.00381261 54.96413619 20.35007843 57.1875 18.625 C69.54382024 9.3316165 89.12390009 -4.6694 105.125 -4.4375 C106.33736328 -4.42396484 106.33736328 -4.42396484 107.57421875 -4.41015625 C108.49654297 -4.39275391 108.49654297 -4.39275391 109.4375 -4.375 C109.06809985 1.39778275 107.44110389 4.63336258 103.625 8.8125 C103.13435059 9.36784424 102.64370117 9.92318848 102.13818359 10.49536133 C100.59176768 12.22533755 99.02056636 13.92854191 97.4375 15.625 C96.94749512 16.15351563 96.45749023 16.68203125 95.95263672 17.2265625 C87.38034798 26.37646775 78.03828119 34.44400841 67.125 40.6875 C64.21828038 42.56045733 64.21828038 42.56045733 62.85546875 45.6015625 C62.80845113 48.02083288 63.07456736 50.23260728 63.4375 52.625 C63.60977898 54.64536261 63.77642062 56.66621363 63.9375 58.6875 C64.10009169 60.33374089 64.26528565 61.97973791 64.4375 63.625 C66.9125 63.13 66.9125 63.13 69.4375 62.625 C72.03768816 66.52528225 71.58835514 70.09934569 71.4375 74.625 C68.9625 75.615 68.9625 75.615 66.4375 76.625 C66.59089844 77.58664063 66.74429688 78.54828125 66.90234375 79.5390625 C67.91312531 86.64483903 68.04923361 93.83644656 68.3203125 101.00048828 C68.43162348 103.49339049 68.60059096 105.97616283 68.78125 108.46484375 C69.40199955 119.13190459 69.40199955 119.13190459 66.93359375 122.953125 C64.87177398 124.74460832 62.73066989 126.14528565 60.4375 127.625 C58.90450916 129.06994745 57.40337475 130.54950785 55.9375 132.0625 C55.2671875 132.74183594 54.596875 133.42117188 53.90625 134.12109375 C53.4215625 134.61738281 52.936875 135.11367188 52.4375 135.625 C50.79990894 132.68075005 50.04757774 130.15557366 49.56787109 126.828125 C49.42787689 125.8803418 49.28788269 124.93255859 49.14364624 123.95605469 C49.00085236 122.93930664 48.85805847 121.92255859 48.7109375 120.875 C48.55839508 119.82473633 48.40585266 118.77447266 48.24868774 117.69238281 C47.92782641 115.47377702 47.61031028 113.25468522 47.29589844 111.03515625 C46.81418547 107.63689021 46.32205542 104.24025955 45.828125 100.84375 C45.51761608 98.6875882 45.20770022 96.5313409 44.8984375 94.375 C44.75159515 93.35825195 44.60475281 92.34150391 44.45346069 91.29394531 C44.31977081 90.34616211 44.18608093 89.39837891 44.04833984 88.421875 C43.87085709 87.17422363 43.87085709 87.17422363 43.68978882 85.90136719 C43.4375 83.625 43.4375 83.625 43.4375 79.625 C42.7775 79.625 42.1175 79.625 41.4375 79.625 C41.746875 78.2328125 41.746875 78.2328125 42.0625 76.8125 C42.84335388 71.61393857 41.51279596 66.69946604 40.4375 61.625 C32.98457437 65.64221179 25.61966492 69.78630908 18.3125 74.0625 C17.29784668 74.65434082 16.28319336 75.24618164 15.23779297 75.85595703 C9.59805523 79.15522519 3.98188117 82.49054436 -1.609375 85.87109375 C-2.18384369 86.21798752 -2.75831238 86.56488129 -3.35018921 86.92228699 C-6.14243686 88.60918632 -8.9311763 90.30147862 -11.71533203 92.00170898 C-12.71419434 92.60700439 -13.71305664 93.2122998 -14.7421875 93.8359375 C-15.62632324 94.37524902 -16.51045898 94.91456055 -17.42138672 95.47021484 C-19.5625 96.625 -19.5625 96.625 -21.5625 96.625 C-21.51013184 97.26937012 -21.45776367 97.91374023 -21.40380859 98.57763672 C-20.01500019 118.21433279 -20.01500019 118.21433279 -23.71875 123.37890625 C-30.04667031 129.625 -30.04667031 129.625 -33.5625 129.625 C-34.5525 121.375 -35.5425 113.125 -36.5625 104.625 C-40.0275 105.12 -40.0275 105.12 -43.5625 105.625 C-43.2325 104.84125 -42.9025 104.0575 -42.5625 103.25 C-41.44383489 100.78167503 -41.44383489 100.78167503 -41.5625 98.625 C-43.45340344 97.13834961 -43.45340344 97.13834961 -45.90234375 95.65625 C-46.80017578 95.08519531 -47.69800781 94.51414062 -48.62304688 93.92578125 C-49.57244141 93.33152344 -50.52183594 92.73726563 -51.5 92.125 C-53.36599986 90.95223117 -55.22942359 89.77535019 -57.08984375 88.59375 C-58.33882446 87.81161133 -58.33882446 87.81161133 -59.61303711 87.01367188 C-61.5625 85.625 -61.5625 85.625 -62.5625 83.625 C-60.52845642 82.75283591 -58.48484514 81.90296495 -56.4375 81.0625 C-55.30054688 80.58683594 -54.16359375 80.11117187 -52.9921875 79.62109375 C-45.57023278 77.46551465 -40.1232266 81.13857186 -33.5859375 84.4453125 C-30.3433442 85.7105104 -29.68870569 85.76456096 -26.5625 84.625 C-24.89203396 83.50943004 -24.89203396 83.50943004 -23.34765625 82.0703125 C-22.75065918 81.54356934 -22.15366211 81.01682617 -21.53857422 80.47412109 C-20.90709473 79.90516113 -20.27561523 79.33620117 -19.625 78.75 C-18.27533966 77.55661267 -16.92506882 76.36391546 -15.57421875 75.171875 C-14.8992334 74.57310547 -14.22424805 73.97433594 -13.52880859 73.35742188 C-10.69901919 70.86422773 -7.82335267 68.42785823 -4.9375 66 C-3.87498271 65.10418717 -2.81248269 64.20835387 -1.75 63.3125 C-1.22664063 62.87164062 -0.70328125 62.43078125 -0.1640625 61.9765625 C1.47678736 60.5918453 3.11388805 59.20281109 4.75 57.8125 C11.58530335 52.00685767 18.47390926 46.27681212 25.4375 40.625 C24.82261719 40.21507812 24.20773437 39.80515625 23.57421875 39.3828125 C20.1953125 37.13020833 16.81640625 34.87760417 13.4375 32.625 C11.10550612 32.54594936 8.76917378 32.53701231 6.4375 32.625 C6.4375 31.635 6.4375 30.645 6.4375 29.625 C2.75228152 26.17979635 -1.54367362 23.71966272 -5.875 21.18359375 C-6.56634033 20.77464371 -7.25768066 20.36569366 -7.9699707 19.9443512 C-10.16536447 18.64677597 -12.363843 17.35453659 -14.5625 16.0625 C-16.03927359 15.19111286 -17.51583818 14.3193714 -18.9921875 13.44726562 C-21.70573138 11.84470416 -24.42060323 10.24443861 -27.13671875 8.64624023 C-28.26722656 7.97923096 -29.39773438 7.31222168 -30.5625 6.625 C-31.53832031 6.08238525 -32.51414062 5.53977051 -33.51953125 4.98071289 C-34.19371094 4.53332764 -34.86789062 4.08594238 -35.5625 3.625 C-35.5625 2.965 -35.5625 2.305 -35.5625 1.625 C-32.88455171 0.24837192 -30.19782588 -1.10086005 -27.5 -2.4375 C-26.37174805 -3.02241211 -26.37174805 -3.02241211 -25.22070312 -3.61914062 C-15.58529897 -8.33256344 -9.03700533 -4.49258391 0 0 Z " fill="#FFFFFF" transform="translate(329.5625,176.375)"/>
<path d="M0 0 C3.42422769 2.782185 4.63419536 4.28855686 5.546875 8.55859375 C5.92995754 13.87018047 5.39928021 17.23216669 1.875 21.3125 C0.59885325 22.55777223 -0.69264464 23.78753333 -2 25 C-2.53625 25.61359375 -3.0725 26.2271875 -3.625 26.859375 C-5.125 28.5625 -5.125 28.5625 -8 31 C-11.10044921 31.07210347 -12.3676348 30.44265564 -14.875 28.6875 C-16 27 -16 27 -15.82421875 25.25390625 C-14.69433389 22.16412632 -12.90773806 19.87698408 -10.9375 17.25 C-9.83728516 15.77273438 -9.83728516 15.77273438 -8.71484375 14.265625 C-8.14894531 13.51796875 -7.58304688 12.7703125 -7 12 C-12.01585053 13.30233508 -15.20771122 15.52650847 -18.875 19.0625 C-19.39457275 19.55419678 -19.91414551 20.04589355 -20.44946289 20.55249023 C-29.7341325 29.43778832 -39.41328041 39.56908394 -40.11328125 53.20703125 C-40.12342835 55.13836334 -40.0677253 57.06982905 -40 59 C-39.38125 59.144375 -38.7625 59.28875 -38.125 59.4375 C-36 60 -36 60 -34 61 C-27.25858246 61.67414175 -21.57690051 59.53905179 -15.25 57.375 C-14.2290625 57.04371094 -13.208125 56.71242188 -12.15625 56.37109375 C-3.84440382 53.57586629 3.70159681 49.86560213 11 45 C11.99 45 12.98 45 14 45 C14.0825 44.29875 14.165 43.5975 14.25 42.875 C15.17360019 39.33453261 16.88576885 36.9117043 19 34 C19.78503906 32.82630859 19.78503906 32.82630859 20.5859375 31.62890625 C24.47272481 25.9791247 28.73697415 20.97407513 33.5625 16.125 C34.09222412 15.5899585 34.62194824 15.05491699 35.16772461 14.50366211 C42.93454635 6.87312137 50.24628704 2.61909483 61.375 1.83203125 C65.25168382 2.03027076 67.01959025 3.01708936 69.9375 5.5625 C72.4295438 9.16873403 73.50627658 12.63336447 73 17 C71.40133018 22.16539909 69.41892309 27.16215382 67 32 C68.05960938 31.6390625 69.11921875 31.278125 70.2109375 30.90625 C71.59890499 30.43734207 72.98692875 29.96860069 74.375 29.5 C75.07367187 29.26152344 75.77234375 29.02304687 76.4921875 28.77734375 C81.7734375 27 81.7734375 27 84 27 C84 26.34 84 25.68 84 25 C84.66 25 85.32 25 86 25 C86.37125 23.88625 86.37125 23.88625 86.75 22.75 C91.30116241 12.73744269 104.96617871 8.39676029 114.5 4.5 C115.37269531 4.13745117 116.24539063 3.77490234 117.14453125 3.40136719 C117.97339844 3.07297852 118.80226563 2.74458984 119.65625 2.40625 C120.76709961 1.96249023 120.76709961 1.96249023 121.90039062 1.50976562 C124.3350392 0.9186556 125.65142333 1.20284185 128 2 C128.68320312 2.22558594 129.36640625 2.45117188 130.0703125 2.68359375 C130.74835938 2.93238281 131.42640625 3.18117188 132.125 3.4375 C132.80820312 3.68371094 133.49140625 3.92992187 134.1953125 4.18359375 C136 5 136 5 138 7 C138.55657492 13.12232416 138.55657492 13.12232416 136.984375 15.6015625 C133.94222149 17.74544233 130.52227212 18.21574679 126.9375 18.9375 C117.61959541 20.97968636 109.54401579 23.63808762 101.59375 29.046875 C100 30 100 30 98 30 C98 30.66 98 31.32 98 32 C98.99 32.2784375 98.99 32.2784375 100 32.5625 C107.22131245 36.02271221 111.88957173 41.246075 115.15625 48.5078125 C116.76303899 53.25379109 116.80854727 57.02355112 114.875 61.75 C108.86131113 68.96642664 98.29282413 72.85869904 89.1875 74 C84.2538734 74.24205383 81.1988493 73.62428081 77 71 C73.59873881 67.3793026 73.43799798 63.48583393 73.57421875 58.7109375 C74.30854503 54.0355023 76.24642455 49.83949253 79 46 C79.99 45.67 80.98 45.34 82 45 C82 49.29 82 53.58 82 58 C88.28856325 59.25771265 92.046275 57.92145433 97.2578125 54.53125 C101.2238991 51.79482832 101.2238991 51.79482832 104 48 C103.175 47.938125 102.35 47.87625 101.5 47.8125 C96.84810714 46.7325963 93.38617949 45.45571089 90 42 C87.88483124 37.79514643 86.36972579 33.49770537 85 29 C83.68 29.66 82.36 30.32 81 31 C81.99 31.66 82.98 32.32 84 33 C82.9275 33.7425 81.855 34.485 80.75 35.25 C78.60313483 36.76820147 76.90193773 38.10786849 75.125 40.0625 C70.90552447 43.90966886 65.66664803 45.78836215 60.0625 46.5 C53.74087369 47.860994 49.48756094 54.95016734 46 60 C45.67644531 60.87527344 45.35289062 61.75054688 45.01953125 62.65234375 C43.66062814 65.78146547 41.8814077 66.87900693 39.0625 68.75 C37.74958984 69.63945313 37.74958984 69.63945313 36.41015625 70.546875 C32.20244726 73.08377572 28.85717475 73.41162498 24 73 C18.01795752 69.95033128 15.05591977 65.85098337 12.75 59.625 C12.5025 58.75875 12.255 57.8925 12 57 C11.360625 57.70125 10.72125 58.4025 10.0625 59.125 C1.33694886 67.70552813 -12.27914929 74.66382381 -24.671875 75.15625 C-33.76847388 74.54574001 -40.02829519 70.8248055 -46 64 C-50.75161841 56.85944636 -52.34497429 48.45125635 -51 40 C-46.17484677 25.21671553 -36.00592101 14.04348439 -23.1171875 5.71875 C-20.74779161 3.79525519 -20.46118105 2.92696237 -20 0 C-14.9529552 -4.03763584 -5.59255404 -2.44450656 0 0 Z M51 24 C48.53425384 26.90958047 46.22789745 29.90530001 44 33 C44.33 33.66 44.66 34.32 45 35 C47.8476639 35.37083415 47.8476639 35.37083415 51 35 C53.100596 33.16109076 53.100596 33.16109076 54.625 30.5625 C55.20636719 29.65886719 55.78773438 28.75523437 56.38671875 27.82421875 C58.57191433 23.99880373 60.40397684 20.10405954 62 16 C57.67031843 16 53.91604262 21.10770366 51 24 Z M-36 25 C-35 27 -35 27 -35 27 Z M34 36 C27.91387029 42.91060541 23 51.64691197 23 61 C27.98314383 60.60465833 30.67622118 58.01157236 34.125 54.6875 C34.91197266 53.95756836 34.91197266 53.95756836 35.71484375 53.21289062 C38.4265406 50.66252258 40.98732445 48.14393801 43 45 C43 44.34 43 43.68 43 43 C42.38125 42.9175 41.7625 42.835 41.125 42.75 C39 42 39 42 37.8125 40.0625 C37.544375 39.381875 37.27625 38.70125 37 38 C36.67 37.34 36.34 36.68 36 36 C35.34 36 34.68 36 34 36 Z M19 45 C20 47 20 47 20 47 Z M18 47 C19 49 19 49 19 49 Z M17 49 C16.67 51.64 16.34 54.28 16 57 C18.1519437 53.77208445 18.20086443 52.71599191 18 49 C17.67 49 17.34 49 17 49 Z M10 52 C9.67 52.66 9.34 53.32 9 54 C9.99 53.67 10.98 53.34 12 53 C11.34 52.67 10.68 52.34 10 52 Z M-0.6875 57.5 C-1.29400391 57.83386719 -1.90050781 58.16773438 -2.52539062 58.51171875 C-4.02003231 59.335537 -5.51043671 60.16703451 -7 61 C-5.01104221 62.27553552 -5.01104221 62.27553552 -2.7578125 61.36328125 C3.85538209 58.78416932 3.85538209 58.78416932 9 54 C5.11908033 54 2.60326704 55.65317733 -0.6875 57.5 Z " fill="#FFFFFF" transform="translate(737,600)"/>
<path d="M0 0 C0 0.99 0 1.98 0 3 C0.66 3 1.32 3 2 3 C2.50918898 11.48648296 -1.02510011 16.11358629 -5.734375 22.7421875 C-21.78375408 45.82008777 -37.612487 70.43161314 -48.0625 96.625 C-48.3497998 97.33495117 -48.63709961 98.04490234 -48.93310547 98.77636719 C-50.86539404 103.85504773 -51.56906243 108.58401912 -52 114 C-44.79792988 114.57616561 -41.77673355 112.36022352 -36.578125 107.94140625 C-31.13742878 103.17812958 -31.13742878 103.17812958 -26.3125 97.8125 C-24.45785314 95.55684841 -22.84501862 93.95296235 -20.625 92.125 C-8.15207111 81.67758948 1.52022415 66.94676801 11.51171875 54.17578125 C15.65758131 48.8774987 19.83125075 43.60012455 24.140625 38.43359375 C28.40576845 33.31094768 32.48125529 28.09555821 36.375 22.6875 C36.79185059 22.11290039 37.20870117 21.53830078 37.63818359 20.94628906 C39.55032082 18.25698069 41.17070756 15.64698339 42.609375 12.671875 C44 10 44 10 46.875 8.5625 C50.05622314 7.98987984 51.95135985 7.98378662 55 9 C57.25840172 11.25840172 57.43597855 12.05184984 57.875 15.125 C57.99617188 15.84945313 58.11734375 16.57390625 58.2421875 17.3203125 C57.59183369 24.51616273 52.15430301 31.04136538 48.3125 36.9375 C42.68243004 45.70814733 37.69351682 54.70029859 33 64 C32.65316162 64.67611328 32.30632324 65.35222656 31.94897461 66.04882812 C26.90391915 75.96241505 23.34048962 86.54573668 19.68554688 97.03564453 C19.20312468 98.41796966 18.71711979 99.79904708 18.22851562 101.17919922 C14.98263664 110.37651127 12.10853557 119.25253204 11 129 C8.625 129.625 8.625 129.625 6 130 C5.34 129.34 4.68 128.68 4 128 C4 126.68 4 125.36 4 124 C3.34 124 2.68 124 2 124 C0.02354091 114.11770453 1.58466026 106.89679124 4.625 97.4375 C4.98529297 96.29104004 5.34558594 95.14458008 5.71679688 93.96337891 C8.42620726 85.46949725 11.43896133 77.1742024 15 69 C13.66590963 70.62437855 12.33278126 72.24954718 11 73.875 C10.16855469 74.88820313 9.33710938 75.90140625 8.48046875 76.9453125 C6.38828262 79.52183149 4.34718438 82.12830256 2.3125 84.75 C-1.32478426 89.3112718 -5.21994992 93.60217456 -9.1875 97.875 C-9.78199951 98.51791992 -10.37649902 99.16083984 -10.98901367 99.82324219 C-15.03025295 104.13132903 -19.07976164 107.80945222 -24.125 110.9375 C-27.07965374 112.75917888 -27.07965374 112.75917888 -28.390625 115.3984375 C-31.9137856 121.0936437 -38.4166937 124.90016782 -44.8125 126.625 C-47.78992077 127.09760647 -48.94798513 127.01809213 -51.875 126 C-54.42938633 123.59587169 -55.64317431 121.21353453 -57 118 C-57.66 118 -58.32 118 -59 118 C-64.5042331 100.11124242 -57.18439848 85.67583873 -49 70 C-48.05798939 68.14812088 -47.11997534 66.29419869 -46.1875 64.4375 C-45.80980469 63.69371094 -45.43210937 62.94992187 -45.04296875 62.18359375 C-43.91733369 59.82692709 -42.94534705 57.43394784 -42 55 C-41.34 55 -40.68 55 -40 55 C-39.92136719 54.33742188 -39.84273438 53.67484375 -39.76171875 52.9921875 C-38.73743158 48.9685774 -36.85877061 45.71751868 -34.8125 42.125 C-34.37905273 41.35414063 -33.94560547 40.58328125 -33.49902344 39.7890625 C-28.10524382 30.28698941 -22.38717745 20.97319012 -16.63085938 11.6875 C-15.51713778 9.85219352 -14.43628963 7.99663643 -13.38476562 6.125 C-12.87107422 5.2175 -12.35738281 4.31 -11.828125 3.375 C-11.37856445 2.55773437 -10.92900391 1.74046875 -10.46582031 0.8984375 C-9 -1 -9 -1 -6.99511719 -1.83203125 C-4.26934282 -2.06151397 -2.43984739 -1.15215016 0 0 Z M-52 86 C-51 88 -51 88 -51 88 Z M-55 94 C-54 96 -54 96 -54 96 Z M-56 97 C-55 100 -55 100 -55 100 Z M-57 101 C-57 102.65 -57 104.3 -57 106 C-56.67 106 -56.34 106 -56 106 C-56 104.35 -56 102.7 -56 101 C-56.33 101 -56.66 101 -57 101 Z " fill="#FFFFFF" transform="translate(416,441)"/>
<path d="M0 0 C1.06992187 0.16886719 2.13984375 0.33773438 3.2421875 0.51171875 C14.21406507 2.55272393 24.62485911 6.19899854 32 15 C38.86906582 27.04649602 39.82958076 39.6562988 36.25 52.9375 C34.89064225 57.51939117 33.44302791 61.83025778 31.109375 66.00390625 C30.26639085 67.52068407 29.49780525 69.07908302 28.765625 70.65234375 C23.28980833 82.35767095 15.6999311 92.49823193 7 102 C6.39929688 102.71414063 5.79859375 103.42828125 5.1796875 104.1640625 C0.0240524 110.23811034 -5.71362613 115.12742909 -12 120 C-12.97324219 120.77730469 -13.94648438 121.55460938 -14.94921875 122.35546875 C-26.6583585 131.49318957 -38.76671402 138.40479871 -54 137 C-61.58636961 135.33152009 -66.69995838 131.04950445 -71.1875 124.875 C-78.02785234 113.8474135 -77.5080206 103.31235057 -75 91 C-72.35130662 80.75485402 -67.47925732 71.94628118 -62 63 C-61.34 63 -60.68 63 -60 63 C-61.42758383 66.76497496 -63.11342885 70.35835797 -64.86914062 73.97680664 C-69.50114332 83.561538 -73.60303965 92.14528623 -73 103 C-72.81566406 102.13761719 -72.63132812 101.27523437 -72.44140625 100.38671875 C-70.54872932 92.42065187 -67.96819124 85.20976524 -64.4375 77.8125 C-64.04957275 76.99934326 -63.66164551 76.18618652 -63.26196289 75.34838867 C-61.42819322 71.60511264 -59.53932346 68.31522785 -57 65 C-56.27954633 61.84881675 -56.27954633 61.84881675 -56 59 C-56.99 59.66 -57.98 60.32 -59 61 C-58.41642779 57.03541416 -56.43059844 54.81184988 -53.9375 51.75 C-47.98918637 44.17310966 -44.04757012 35.65489801 -40.05493164 26.9362793 C-37.92096737 22.42460628 -35.52869788 18.97096772 -32.0625 15.3125 C-31.22847656 14.42175781 -30.39445312 13.53101563 -29.53515625 12.61328125 C-28.69855469 11.75089844 -27.86195313 10.88851563 -27 10 C-26.21109375 9.1234375 -25.4221875 8.246875 -24.609375 7.34375 C-18.43199428 1.79520444 -8.28905285 -1.35179894 0 0 Z M-23 21 C-17.72 21 -12.44 21 -7 21 C-6.34 22.65 -5.68 24.3 -5 26 C-6.30324219 26.36738281 -6.30324219 26.36738281 -7.6328125 26.7421875 C-22.29130648 32.21786623 -39.84213652 50.36238642 -47 64 C-47.72253999 66.04421256 -47.72253999 66.04421256 -48.1875 68 C-48.455625 68.99 -48.72375 69.98 -49 71 C-49.96099609 71.38285156 -49.96099609 71.38285156 -50.94140625 71.7734375 C-53.33014574 72.89660384 -53.33014574 72.89660384 -54.046875 76.0390625 C-54.27890625 77.22242188 -54.5109375 78.40578125 -54.75 79.625 C-54.99234375 80.81351563 -55.2346875 82.00203125 -55.484375 83.2265625 C-55.73960937 84.59941406 -55.73960937 84.59941406 -56 86 C-56.66 85.67 -57.32 85.34 -58 85 C-58.33 87.64 -58.66 90.28 -59 93 C-59.66 93 -60.32 93 -61 93 C-61 93.66 -61 94.32 -61 95 C-61.66 95 -62.32 95 -63 95 C-65.8436684 104.95283941 -65.94685865 114.10628269 -61.25 123.5 C-58.43783579 126.6246269 -57.12650735 126.68181148 -53 127 C-36.69666615 124.12045012 -24.76337433 113.84082299 -13 103 C-12.09121094 102.175 -11.18242187 101.35 -10.24609375 100.5 C9.37004226 81.85994781 24.93927441 56.4156767 26 29 C25.70598189 24.19970431 24.74587987 20.45933018 22.5625 16.1875 C15.08491988 9.8041999 6.62326141 7.83419987 -3.04296875 8.37890625 C-11.72175149 9.37455608 -17.72745367 14.40931708 -23 21 Z M32 34 C31.68869141 35.59714844 31.68869141 35.59714844 31.37109375 37.2265625 C29.4820435 46.3099912 26.9541914 53.95517323 22.390625 62.046875 C20.98614505 65.02942232 20.6878858 66.75881406 21 70 C21.66 69.34 22.32 68.68 23 68 C23 67.01 23 66.02 23 65 C23.66 65 24.32 65 25 65 C25.33 66.32 25.66 67.64 26 69 C26.33 67.35 26.66 65.7 27 64 C26.34 64 25.68 64 25 64 C25.40992188 63.0821875 25.81984375 62.164375 26.2421875 61.21875 C30.29210019 52.04578532 33.36335381 44.1739068 33 34 C32.67 34 32.34 34 32 34 Z M-55 56 C-54 58 -54 58 -54 58 Z M24 69 C25 71 25 71 25 71 Z M22 72 C23 74 23 74 23 74 Z M20 75 C21 77 21 77 21 77 Z M16 76 C15.01 76.99 14.02 77.98 13 79 C13.33 79.66 13.66 80.32 14 81 C14.99 80.34 15.98 79.68 17 79 C16.67 78.01 16.34 77.02 16 76 Z M11 81 C11.33 81.99 11.66 82.98 12 84 C12.33 83.01 12.66 82.02 13 81 C12.34 81 11.68 81 11 81 Z M13 85 C13 88 13 88 13 88 Z M4 89 C4.33 89.66 4.66 90.32 5 91 C5.33 90.34 5.66 89.68 6 89 C5.34 89 4.68 89 4 89 Z " fill="#FFFFFF" transform="translate(330,436)"/>
<path d="M0 0 C3.37968613 3.26702993 4.86616976 7.42376797 5.109375 12.10546875 C4.5514962 23.68145395 -5.95272564 31.45462493 -13.9296875 38.76953125 C-15.9335654 40.53689995 -17.96449448 42.26912796 -20 44 C-21.01625655 44.87947909 -22.03182412 45.75975465 -23.046875 46.640625 C-34.6933743 56.72370012 -46.58720747 66.45800284 -58.875 75.75 C-65.21197928 80.5454941 -71.1842736 85.5783796 -77 91 C-81.94706994 95.39437531 -86.96878158 99.70250094 -92 104 C-90.85402344 103.72285156 -89.70804687 103.44570313 -88.52734375 103.16015625 C-86.9974356 102.79410461 -85.46748543 102.42822853 -83.9375 102.0625 C-82.80924805 101.78889648 -82.80924805 101.78889648 -81.65820312 101.50976562 C-73.37701494 99.53805415 -65.37749494 98.74953721 -56.875 98.625 C-55.41126953 98.56892578 -55.41126953 98.56892578 -53.91796875 98.51171875 C-46.75085509 98.42371872 -46.75085509 98.42371872 -42.875 101.3984375 C-40.34366292 104.9106677 -39.75975475 106.48988701 -40.4375 110.75 C-40.623125 111.4925 -40.80875 112.235 -41 113 C-41.72348633 112.83991455 -42.44697266 112.6798291 -43.19238281 112.51489258 C-62.90266641 108.90019796 -81.51517277 114.12626606 -99.87158203 120.71313477 C-104.33665288 122.28468559 -108.19355657 123.63935476 -113 123 C-115.94542298 119.52860863 -117.13070495 115.42550207 -118 111 C-116.79769226 106.65481763 -114.57611891 104.22701307 -111.375 101.125 C-110.47523438 100.25101563 -109.57546875 99.37703125 -108.6484375 98.4765625 C-105.8491324 95.85892322 -102.98666679 93.3408638 -100.0703125 90.85546875 C-97.56255839 88.60795327 -95.22951947 86.21973259 -92.875 83.8125 C-89.44060177 80.34111594 -86.28198098 77.35508954 -82 75 C-81.34 75 -80.68 75 -80 75 C-81 78 -81 78 -83 79 C-84.0409066 80.64142963 -85.04504326 82.30712215 -86 84 C-82.29331827 81.19190778 -79.07803795 78.10976367 -75.8359375 74.796875 C-74.04594657 73.04496898 -72.18726755 71.46078019 -70.25 69.875 C-67.96711467 67.98274171 -66.89743585 66.82248512 -65.375 64.1875 C-64 62 -64 62 -61.625 61.375 C-60.325625 61.189375 -60.325625 61.189375 -59 61 C-54.32129297 58.47770203 -50.4528198 55.14982991 -46.40234375 51.7421875 C-44 50 -44 50 -42.01953125 49.546875 C-38.86469447 48.69256717 -37.10039526 46.59780237 -34.75 44.375 C-33.77275693 43.46027306 -32.79488835 42.54621393 -31.81640625 41.6328125 C-30.88699219 40.76398438 -29.95757813 39.89515625 -29 39 C-27.56894402 37.74262773 -26.13228698 36.49157031 -24.6875 35.25 C-21.29893131 32.30858264 -18.13313226 29.21146056 -15 26 C-15.42410156 26.36351562 -15.84820313 26.72703125 -16.28515625 27.1015625 C-17.5171269 28.15753734 -18.75028215 29.21213111 -19.984375 30.265625 C-21.3161944 31.41160914 -22.63935274 32.56774523 -23.953125 33.734375 C-24.56671875 34.27578125 -25.1803125 34.8171875 -25.8125 35.375 C-26.37582031 35.87773437 -26.93914062 36.38046875 -27.51953125 36.8984375 C-29 38 -29 38 -31 38 C-29.42156521 33.85904454 -26.37893715 31.3989656 -23.125 28.5625 C-17.65546903 23.76501602 -13.40723762 18.6835158 -9.25 12.6875 C-8.63640625 11.80449219 -8.0228125 10.92148437 -7.390625 10.01171875 C-6.70226562 9.01591797 -6.70226562 9.01591797 -6 8 C-25.72046214 9.47806225 -42.92701627 12.8221735 -61.41113281 20.00219727 C-72.79514632 24.34047349 -72.79514632 24.34047349 -79.328125 22.2578125 C-82.59048765 19.80341817 -83.17807934 15.84171806 -84 12 C-84.21131076 9.27094398 -84.14961252 6.74289627 -84 4 C-82.125 4.1875 -82.125 4.1875 -80 5 C-78.75 7.5625 -78.75 7.5625 -78 10 C-71.19539244 9.34401625 -64.94068071 7.21908504 -58.4375 5.1875 C-15.07507847 -7.9641924 -15.07507847 -7.9641924 0 0 Z M-21 2 C-21 2.33 -21 2.66 -21 3 C-19.02 3 -17.04 3 -15 3 C-15 2.01 -15 1.02 -15 0 C-17.46278801 0 -18.85224119 0.85452863 -21 2 Z M-38 4 C-38.33 4.66 -38.66 5.32 -39 6 C-37.68 5.67 -36.36 5.34 -35 5 C-35.99 4.67 -36.98 4.34 -38 4 Z M-35 4 C-31 5 -31 5 -31 5 Z M-48 6 C-48.99 6.99 -49.98 7.98 -51 9 C-49.35 8.67 -47.7 8.34 -46 8 C-46.66 7.34 -47.32 6.68 -48 6 Z M-91 86 C-92.71711243 88.44496043 -92.71711243 88.44496043 -94 91 C-90.83884224 89.63016497 -90.0072908 89.0109362 -88 86 C-88.99 86 -89.98 86 -91 86 Z M-98 92 C-97.34 92.66 -96.68 93.32 -96 94 C-95.67 93.34 -95.34 92.68 -95 92 C-95.99 92 -96.98 92 -98 92 Z M-100 94 C-99.67 94.99 -99.34 95.98 -99 97 C-98.34 96.01 -97.68 95.02 -97 94 C-97.99 94 -98.98 94 -100 94 Z M-102 97 C-102 97.99 -102 98.98 -102 100 C-101.34 99.01 -100.68 98.02 -100 97 C-100.66 97 -101.32 97 -102 97 Z M-68 102 C-67.01 102.495 -67.01 102.495 -66 103 C-66 103.66 -66 104.32 -66 105 C-63.36 105 -60.72 105 -58 105 C-58.639375 104.690625 -59.27875 104.38125 -59.9375 104.0625 C-62 103 -62 103 -63 102 C-64.66617115 101.95936168 -66.33388095 101.957279 -68 102 Z " fill="#FFFFFF" transform="translate(562,446)"/>
<path d="M0 0 C1.02577148 -0.01836914 1.02577148 -0.01836914 2.07226562 -0.03710938 C5.76330737 -0.04795475 7.28039132 0.08276088 10.4375 2.1875 C10.4375 2.8475 10.4375 3.5075 10.4375 4.1875 C11.4275 4.8475 12.4175 5.5075 13.4375 6.1875 C13.4375 8.52083333 13.4375 10.85416667 13.4375 13.1875 C12.68581543 13.16655273 11.93413086 13.14560547 11.15966797 13.12402344 C-11.72395043 12.5774457 -33.28569417 14.73950063 -55.83935547 18.82470703 C-63.57430234 19.85520112 -63.57430234 19.85520112 -66.875 17.625 C-69.03047134 14.51154139 -69.2753051 11.92103364 -69.5625 8.1875 C-60.48073429 6.37471383 -51.3349059 5.1508035 -42.15649414 3.95532227 C-39.63306138 3.62605189 -37.11046567 3.29084917 -34.58789062 2.95507812 C-23.07953198 1.43650553 -11.62439143 0.05681521 0 0 Z " fill="#FFFFFF" transform="translate(869.5625,567.8125)"/>
<path d="M0 0 C4.67560807 0.37108001 9.50890354 1.88390354 12.9375 5.3125 C13.45883929 8.44053573 13.47177636 10.49755948 11.703125 13.1953125 C8.39241093 17.1124445 5.68897917 19.85841281 0.5625 21.1875 C-3.0625 21.3125 -3.0625 21.3125 -5.9375 19.75 C-8.64149171 16.64836244 -9.21577623 15.45095829 -9.0625 11.3125 C-4.72373147 0.48201342 -4.72373147 0.48201342 0 0 Z " fill="#FFFFFF" transform="translate(659.0625,652.6875)"/>
<path d="M0 0 C1 3 1 3 -0.328125 5.91796875 C-1.27945313 7.53638672 -1.27945313 7.53638672 -2.25 9.1875 C-2.87390625 10.27417969 -3.4978125 11.36085938 -4.140625 12.48046875 C-4.75421875 13.31191406 -5.3678125 14.14335937 -6 15 C-6.99 15 -7.98 15 -9 15 C-7.61219205 11.10993227 -5.7847773 8.03441292 -3.375 4.6875 C-2.74335937 3.80449219 -2.11171875 2.92148437 -1.4609375 2.01171875 C-0.97882812 1.34785156 -0.49671875 0.68398438 0 0 Z " fill="#FFFFFF" transform="translate(575,482)"/>
<path d="M0 0 C0.99 0.33 1.98 0.66 3 1 C-0.465 3.97 -0.465 3.97 -4 7 C-4.33 6.01 -4.66 5.02 -5 4 C-2.6875 1.9375 -2.6875 1.9375 0 0 Z " fill="#FFFFFF" transform="translate(527,485)"/>
<path d="M0 0 C0.66 0 1.32 0 2 0 C1.45773019 3.79588866 -0.20127563 5.47211993 -3 8 C-2.45276317 4.62537285 -1.9451 2.91765 0 0 Z " fill="#FFFFFF" transform="translate(585,464)"/>
<path d="M0 0 C0.66 0 1.32 0 2 0 C1.1875 2.9375 1.1875 2.9375 0 6 C-0.99 6.33 -1.98 6.66 -3 7 C-1.125 2.25 -1.125 2.25 0 0 Z " fill="#FFFFFF" transform="translate(579,474)"/>
<path d="" fill="#FFFFFF" transform="translate(0,0)"/>
</svg>
